<svg width="987" height="641" viewBox="0 0 987 641" fill="none" xmlns="http://www.w3.org/2000/svg">
<path d="M147.609 5.88073C147.609 9.12857 144.979 11.7615 141.734 11.7615C138.49 11.7615 135.859 9.12857 135.859 5.88073C135.859 2.63289 138.49 0 141.734 0C144.979 0 147.609 2.63289 147.609 5.88073Z" fill="#40484D"/>
<path d="M11.75 359.46C11.75 362.708 9.11967 365.341 5.875 365.341C2.63033 365.341 0 362.708 0 359.46C0 356.212 2.63033 353.579 5.875 353.579C9.11967 353.579 11.75 356.212 11.75 359.46Z" fill="#40484D"/>
<path d="M467.062 635.119C467.062 638.367 464.432 641 461.188 641C457.943 641 455.312 638.367 455.312 635.119C455.312 631.871 457.943 629.239 461.188 629.239C464.432 629.239 467.062 631.871 467.062 635.119Z" fill="#40484D"/>
<path d="M574.281 83.0654C574.281 86.3132 571.651 88.9461 568.406 88.9461C565.162 88.9461 562.531 86.3132 562.531 83.0654C562.531 79.8175 565.162 77.1846 568.406 77.1846C571.651 77.1846 574.281 79.8175 574.281 83.0654Z" fill="#40484D"/>
<path d="M987 558.67C987 561.918 984.37 564.55 981.125 564.55C977.88 564.55 975.25 561.918 975.25 558.67C975.25 555.422 977.88 552.789 981.125 552.789C984.37 552.789 987 555.422 987 558.67Z" fill="#40484D"/>
</svg>
